<svg xmlns="http://www.w3.org/2000/svg" viewBox="0 0 440 120" width="440" height="120">
  <!-- Badge mark: original viewBox 0 0 500 500, scaled to 90x90, centered vertically at y=15 -->
  <g transform="translate(15, 15) scale(0.18)">
    <path fill="#00AEEF" d="M 150.15,53.47 L 131.35,64.21 L 113.53,76.90 L 100.10,88.38 L 83.74,105.22 L 71.04,121.09 L 59.57,138.67 L 50.54,156.01 L 41.99,177.73 L 36.13,199.46 L 32.71,220.70 L 31.49,237.79 L 32.23,264.40 L 35.40,286.38 L 40.77,307.86 L 47.85,327.39 L 55.91,344.48 L 65.43,360.84 L 75.68,375.49 L 99.37,401.86 L 125.00,423.10 L 153.56,440.92 L 155.52,428.96 L 160.16,421.63 L 166.26,416.26 L 193.12,397.71 L 203.37,387.21 L 208.74,376.95 L 211.67,362.79 L 211.91,352.29 L 193.85,329.35 L 191.65,323.73 L 186.77,301.27 L 180.18,299.80 L 176.27,295.90 L 171.14,279.54 L 163.33,261.96 L 162.35,255.62 L 163.33,245.61 L 167.24,240.48 L 173.10,238.77 L 168.46,221.92 L 167.48,205.81 L 169.43,190.92 L 173.34,178.47 L 179.20,166.75 L 190.19,152.59 L 201.90,142.33 L 213.87,135.25 L 227.05,130.37 L 242.43,127.69 L 258.06,127.69 L 273.68,130.62 L 289.06,136.96 L 303.22,146.73 L 313.48,157.23 L 321.53,169.19 L 328.61,185.79 L 331.79,202.15 L 331.54,218.99 L 326.66,238.77 L 330.81,239.50 L 334.96,242.92 L 337.40,249.76 L 335.45,265.38 L 328.12,281.01 L 324.71,293.70 L 319.82,299.80 L 313.23,301.27 L 307.37,327.39 L 288.33,352.29 L 290.28,373.05 L 294.43,383.54 L 303.96,395.02 L 333.01,415.53 L 340.58,422.36 L 344.97,430.42 L 346.19,441.41 L 365.23,430.66 L 384.77,416.75 L 398.19,405.27 L 413.09,390.14 L 425.78,374.51 L 437.26,357.42 L 447.27,338.87 L 455.57,318.85 L 460.45,303.22 L 465.33,280.52 L 467.77,257.32 L 467.77,234.38 L 465.58,213.13 L 461.91,195.07 L 456.05,175.78 L 446.04,152.34 L 436.28,134.77 L 424.80,117.92 L 409.91,100.10 L 395.51,85.94 L 379.88,73.24 L 360.60,60.30 L 340.33,49.56 L 321.29,41.75 L 298.83,35.16 L 278.56,31.49 L 260.01,29.79 L 235.84,30.03 L 212.89,32.71 L 191.16,37.60 L 171.14,44.19 Z"/>
  </g>
  <!-- Wordmark: Montserrat 700, white, letter-spacing 0.20em -->
  <!-- cairosvg uses system fonts, so we embed the style -->
  <text
    x="122"
    y="72"
    font-family="Montserrat, Arial, Helvetica, sans-serif"
    font-weight="700"
    font-size="42"
    fill="#FFFFFF"
    letter-spacing="8"
    text-anchor="start"
  >NAMESAKE</text>
</svg>